<svg width="26" height="24" viewBox="0 0 26 24" fill="none" xmlns="http://www.w3.org/2000/svg">
<path fill-rule="evenodd" clip-rule="evenodd" d="M8 1C8 0.447715 8.44771 0 9 0C9.55229 0 10 0.447715 10 1V2H16V1C16 0.447715 16.4477 0 17 0C17.5523 0 18 0.447715 18 1V2H22C24.2091 2 26 3.79086 26 6V20C26 22.2091 24.2091 24 22 24H4C1.79086 24 0 22.2091 0 20V6C0 3.79086 1.79086 2 4 2H8V1ZM8 4H4C2.89543 4 2 4.89543 2 6V20C2 21.1046 2.89543 22 4 22H22C23.1046 22 24 21.1046 24 20V6C24 4.89543 23.1046 4 22 4H18C18 4.55228 17.5523 5 17 5C16.4477 5 16 4.55228 16 4H10C10 4.55228 9.55229 5 9 5C8.44771 5 8 4.55228 8 4ZM5 7C4.44772 7 4 7.44772 4 8V9C4 9.55228 4.44772 10 5 10C5.55228 10 6 9.55229 6 9V8C6 7.44772 5.55228 7 5 7ZM5 12C4.44772 12 4 12.4477 4 13V14C4 14.5523 4.44772 15 5 15C5.55228 15 6 14.5523 6 14V13C6 12.4477 5.55228 12 5 12ZM4 18C4 17.4477 4.44772 17 5 17C5.55228 17 6 17.4477 6 18V19C6 19.5523 5.55228 20 5 20C4.44772 20 4 19.5523 4 19V18ZM9 7C8.44771 7 8 7.44772 8 8V9C8 9.55228 8.44771 10 9 10C9.55229 10 10 9.55229 10 9V8C10 7.44772 9.55229 7 9 7ZM8 13C8 12.4477 8.44771 12 9 12C9.55229 12 10 12.4477 10 13V14C10 14.5523 9.55229 15 9 15C8.44771 15 8 14.5523 8 14V13ZM9 17C8.44771 17 8 17.4477 8 18V19C8 19.5523 8.44771 20 9 20C9.55229 20 10 19.5523 10 19V18C10 17.4477 9.55229 17 9 17ZM12 8C12 7.44772 12.4477 7 13 7C13.5523 7 14 7.44772 14 8V9C14 9.55229 13.5523 10 13 10C12.4477 10 12 9.55228 12 9V8ZM13 12C12.4477 12 12 12.4477 12 13V14C12 14.5523 12.4477 15 13 15C13.5523 15 14 14.5523 14 14V13C14 12.4477 13.5523 12 13 12ZM12 18C12 17.4477 12.4477 17 13 17C13.5523 17 14 17.4477 14 18V19C14 19.5523 13.5523 20 13 20C12.4477 20 12 19.5523 12 19V18ZM17 7C16.4477 7 16 7.44772 16 8V9C16 9.55228 16.4477 10 17 10C17.5523 10 18 9.55229 18 9V8C18 7.44772 17.5523 7 17 7ZM16 13C16 12.4477 16.4477 12 17 12C17.5523 12 18 12.4477 18 13V14C18 14.5523 17.5523 15 17 15C16.4477 15 16 14.5523 16 14V13ZM17 17C16.4477 17 16 17.4477 16 18V19C16 19.5523 16.4477 20 17 20C17.5523 20 18 19.5523 18 19V18C18 17.4477 17.5523 17 17 17ZM20 8C20 7.44772 20.4477 7 21 7C21.5523 7 22 7.44772 22 8V9C22 9.55229 21.5523 10 21 10C20.4477 10 20 9.55228 20 9V8ZM21 12C20.4477 12 20 12.4477 20 13V14C20 14.5523 20.4477 15 21 15C21.5523 15 22 14.5523 22 14V13C22 12.4477 21.5523 12 21 12ZM20 18C20 17.4477 20.4477 17 21 17C21.5523 17 22 17.4477 22 18V19C22 19.5523 21.5523 20 21 20C20.4477 20 20 19.5523 20 19V18Z" fill="#F07B6A"/>
</svg>
